<svg width="1440" height="571" viewBox="0 0 1440 571" fill="none" xmlns="http://www.w3.org/2000/svg">
<path d="M646.653 892.418L142.105 1012.92L132.163 1011.31C-3.62274 1098.93 -251.037 1162.75 -154.41 717.082C-33.6256 160.001 222.591 604.489 1181.71 520.203C1949 452.774 1520.1 643.216 1209.74 746.866C1034.02 792.525 675.38 885.558 646.653 892.418Z" fill="url(#paint0_linear)" fill-opacity="0.5"/>
<path d="M647.061 822.481L143.844 948.749L133.887 947.255C-0.952143 1036.42 -247.663 1103.08 -155.799 656.318C-40.9675 97.871 219.967 539.414 1178.1 444.153C1944.6 367.945 1517.77 563.29 1208.55 670.488C1033.32 718.157 675.713 815.291 647.061 822.481Z" fill="url(#paint1_linear)" fill-opacity="0.5"/>
<defs>
<linearGradient id="paint0_linear" x1="1552.33" y1="728.557" x2="-332.738" y2="509.874" gradientUnits="userSpaceOnUse">
<stop stop-color="#1D8DBD"/>
<stop offset="1" stop-color="#142732"/>
</linearGradient>
<linearGradient id="paint1_linear" x1="1550.91" y1="648.259" x2="-336.172" y2="449.749" gradientUnits="userSpaceOnUse">
<stop stop-color="#1D8DBD"/>
<stop offset="1" stop-color="#142732"/>
</linearGradient>
</defs>
</svg>
